<svg width="32" height="32" viewBox="0 0 32 32" fill="none" xmlns="http://www.w3.org/2000/svg">
<path d="M7.97331 1.23828H4.76522C3.91438 1.23828 3.09839 1.57628 2.49676 2.17791C1.89512 2.77954 1.55713 3.59553 1.55713 4.44637V7.65446M24.0138 1.23828H27.2219C28.0727 1.23828 28.8887 1.57628 29.4903 2.17791C30.092 2.77954 30.4299 3.59553 30.4299 4.44637V7.65446M22.4097 9.25851V12.4666M9.57736 9.25851V12.4666M11.1814 22.0909C11.1814 22.0909 12.7854 23.6949 15.9935 23.6949C19.2016 23.6949 20.8057 22.0909 20.8057 22.0909M15.9935 9.25851V17.2787H14.3895M7.97331 30.1111H4.76522C3.91438 30.1111 3.09839 29.7731 2.49676 29.1715C1.89512 28.5698 1.55713 27.7538 1.55713 26.903V23.6949M24.0138 30.1111H27.2219C28.0727 30.1111 28.8887 29.7731 29.4903 29.1715C30.092 28.5698 30.4299 27.7538 30.4299 26.903V23.6949" stroke="#808080" stroke-width="2.40607" stroke-linecap="round" stroke-linejoin="round"/>
</svg>
