<svg xmlns="http://www.w3.org/2000/svg" width="14" height="17" viewBox="0 0 14 17" fill="none">
<path d="M13.0728 5.5214C12.9798 5.5937 11.348 6.5129 11.348 8.5578C11.348 10.9229 13.4239 11.7595 13.4859 11.7801C13.4756 11.8317 13.1554 12.9265 12.3911 14.0419C11.7095 15.0231 10.9968 16.0042 9.91242 16.0042C8.82802 16.0042 8.54912 15.3742 7.29942 15.3742C6.08072 15.3742 5.64692 16.0249 4.65542 16.0249C3.66392 16.0249 2.97192 15.116 2.17672 14.0006C1.25752 12.6889 0.513916 10.6543 0.513916 8.723C0.513916 5.6246 2.52792 3.9824 4.51082 3.9824C5.56432 3.9824 6.44212 4.6744 7.10312 4.6744C7.73312 4.6744 8.71432 3.9411 9.91232 3.9411C10.3668 3.9412 11.9987 3.9826 13.0728 5.5214ZM9.34442 2.6296C9.84012 2.0409 10.1913 1.225 10.1913 0.409098C10.1913 0.295498 10.181 0.181898 10.1603 0.0888977C9.35472 0.119898 8.39422 0.625998 7.81582 1.2973C7.36142 1.8137 6.93792 2.6296 6.93792 3.4559C6.93792 3.5798 6.95862 3.7038 6.96892 3.7451C7.02052 3.7554 7.10322 3.7658 7.18582 3.7658C7.90882 3.7657 8.81762 3.2803 9.34442 2.6296Z" fill="#b6b6b6"/>
</svg>